<svg xmlns="http://www.w3.org/2000/svg" xmlns:xlink="http://www.w3.org/1999/xlink" width="1280" zoomAndPan="magnify" viewBox="0 0 960 959.999988" height="1280" preserveAspectRatio="xMidYMid meet" version="1.0"><defs><g/><clipPath id="c34c218507"><rect x="0" width="596" y="0" height="113"/></clipPath><clipPath id="0531702fc2"><path d="M 514.3125 384.757812 L 538.429688 384.757812 L 538.429688 405.890625 L 514.3125 405.890625 Z M 514.3125 384.757812 " clip-rule="nonzero"/></clipPath><clipPath id="1da99f25ae"><path d="M 514.3125 390.992188 C 514.3125 397.707031 526.359375 405.890625 526.359375 405.890625 C 526.359375 405.890625 538.351562 397.648438 538.40625 390.992188 C 538.40625 387.558594 535.605469 384.757812 532.171875 384.757812 C 529.53125 384.757812 527.253906 386.449219 526.359375 388.773438 C 525.464844 386.449219 523.1875 384.757812 520.550781 384.757812 C 517.113281 384.757812 514.3125 387.558594 514.3125 390.992188 " clip-rule="nonzero"/></clipPath><clipPath id="e910e8f75b"><path d="M 0.3125 0.757812 L 24.429688 0.757812 L 24.429688 21.890625 L 0.3125 21.890625 Z M 0.3125 0.757812 " clip-rule="nonzero"/></clipPath><clipPath id="cfdbb5c51d"><path d="M 0.3125 6.992188 C 0.3125 13.707031 12.359375 21.890625 12.359375 21.890625 C 12.359375 21.890625 24.351562 13.648438 24.40625 6.992188 C 24.40625 3.558594 21.605469 0.757812 18.171875 0.757812 C 15.53125 0.757812 13.253906 2.449219 12.359375 4.773438 C 11.464844 2.449219 9.1875 0.757812 6.550781 0.757812 C 3.113281 0.757812 0.3125 3.558594 0.3125 6.992188 " clip-rule="nonzero"/></clipPath><clipPath id="87c7aa3e8e"><rect x="0" width="25" y="0" height="22"/></clipPath><clipPath id="0670685f27"><rect x="0" width="374" y="0" height="141"/></clipPath></defs><g transform="matrix(1, 0, 0, 1, 182, 393)"><g clip-path="url(#c34c218507)"><g fill="#000000" fill-opacity="1"><g transform="translate(0.753642, 86.927694)"><g><path d="M 30.734375 -35.296875 C 33.410156 -34.316406 35.957031 -33.28125 38.375 -32.1875 C 40.800781 -31.101562 43 -29.863281 44.96875 -28.46875 C 46.945312 -27.070312 48.492188 -25.414062 49.609375 -23.5 C 50.734375 -21.59375 51.296875 -19.273438 51.296875 -16.546875 C 51.296875 -13.035156 50.3125 -9.957031 48.34375 -7.3125 C 46.375 -4.675781 43.644531 -2.644531 40.15625 -1.21875 C 36.664062 0.195312 32.679688 0.90625 28.203125 0.90625 C 23.828125 0.90625 19.878906 0.253906 16.359375 -1.046875 C 12.847656 -2.347656 10.0625 -4.101562 8 -6.3125 C 5.9375 -8.53125 4.90625 -11.035156 4.90625 -13.828125 C 4.90625 -15.160156 5.359375 -16.234375 6.265625 -17.046875 C 7.179688 -17.867188 8.304688 -18.28125 9.640625 -18.28125 C 10.847656 -18.28125 11.875 -17.867188 12.71875 -17.046875 C 13.570312 -16.234375 14 -15.160156 14 -13.828125 C 14 -12.492188 13.570312 -11.398438 12.71875 -10.546875 C 11.875 -9.703125 10.847656 -9.28125 9.640625 -9.28125 L 9 -9.28125 C 10.332031 -6.851562 12.617188 -4.878906 15.859375 -3.359375 C 19.109375 -1.847656 22.859375 -1.09375 27.109375 -1.09375 C 30.554688 -1.09375 33.613281 -1.609375 36.28125 -2.640625 C 38.957031 -3.671875 41.050781 -5.09375 42.5625 -6.90625 C 44.082031 -8.726562 44.84375 -10.820312 44.84375 -13.1875 C 44.84375 -15.738281 44.007812 -17.890625 42.34375 -19.640625 C 40.675781 -21.398438 38.460938 -22.945312 35.703125 -24.28125 C 32.941406 -25.613281 29.925781 -26.921875 26.65625 -28.203125 C 24.34375 -29.109375 22.003906 -30.101562 19.640625 -31.1875 C 17.273438 -32.28125 15.09375 -33.570312 13.09375 -35.0625 C 11.09375 -36.550781 9.46875 -38.296875 8.21875 -40.296875 C 6.976562 -42.296875 6.359375 -44.660156 6.359375 -47.390625 C 6.359375 -50.785156 7.3125 -53.769531 9.21875 -56.34375 C 11.132812 -58.925781 13.757812 -60.941406 17.09375 -62.390625 C 20.4375 -63.847656 24.195312 -64.578125 28.375 -64.578125 C 32.257812 -64.578125 35.734375 -63.96875 38.796875 -62.75 C 41.859375 -61.539062 44.296875 -59.90625 46.109375 -57.84375 C 47.929688 -55.78125 48.84375 -53.445312 48.84375 -50.84375 C 48.84375 -49.507812 48.414062 -48.429688 47.5625 -47.609375 C 46.71875 -46.796875 45.6875 -46.390625 44.46875 -46.390625 C 43.132812 -46.390625 42.015625 -46.796875 41.109375 -47.609375 C 40.203125 -48.429688 39.75 -49.507812 39.75 -50.84375 C 39.75 -52.175781 40.203125 -53.265625 41.109375 -54.109375 C 42.015625 -54.960938 43.132812 -55.390625 44.46875 -55.390625 L 44.84375 -55.390625 C 43.625 -57.515625 41.617188 -59.242188 38.828125 -60.578125 C 36.046875 -61.910156 32.835938 -62.578125 29.203125 -62.578125 C 26.046875 -62.578125 23.222656 -62.046875 20.734375 -60.984375 C 18.253906 -59.921875 16.285156 -58.460938 14.828125 -56.609375 C 13.367188 -54.765625 12.640625 -52.691406 12.640625 -50.390625 C 12.640625 -47.785156 13.519531 -45.570312 15.28125 -43.75 C 17.039062 -41.925781 19.3125 -40.363281 22.09375 -39.0625 C 24.882812 -37.757812 27.765625 -36.503906 30.734375 -35.296875 Z M 30.734375 -35.296875 "/></g></g></g><g fill="#000000" fill-opacity="1"><g transform="translate(56.32698, 86.927694)"><g><path d="M 53.484375 -63.671875 L 53.484375 -61.84375 L 32.109375 -61.84375 L 32.109375 0 L 24.015625 0 L 24.015625 -61.84375 L 2.453125 -61.84375 L 2.453125 -63.671875 Z M 53.484375 -63.671875 "/></g></g></g><g fill="#000000" fill-opacity="1"><g transform="translate(112.264137, 86.927694)"><g><path d="M 37.65625 0.90625 C 32.925781 0.90625 28.546875 0.0859375 24.515625 -1.546875 C 20.484375 -3.179688 16.976562 -5.484375 14 -8.453125 C 11.03125 -11.429688 8.710938 -14.90625 7.046875 -18.875 C 5.378906 -22.84375 4.546875 -27.160156 4.546875 -31.828125 C 4.546875 -36.503906 5.378906 -40.828125 7.046875 -44.796875 C 8.710938 -48.765625 11.03125 -52.234375 14 -55.203125 C 16.976562 -58.179688 20.484375 -60.488281 24.515625 -62.125 C 28.546875 -63.757812 32.925781 -64.578125 37.65625 -64.578125 C 42.382812 -64.578125 46.765625 -63.757812 50.796875 -62.125 C 54.828125 -60.488281 58.34375 -58.179688 61.34375 -55.203125 C 64.34375 -52.234375 66.675781 -48.765625 68.34375 -44.796875 C 70.019531 -40.828125 70.859375 -36.503906 70.859375 -31.828125 C 70.859375 -27.160156 70.019531 -22.84375 68.34375 -18.875 C 66.675781 -14.90625 64.34375 -11.429688 61.34375 -8.453125 C 58.34375 -5.484375 54.828125 -3.179688 50.796875 -1.546875 C 46.765625 0.0859375 42.382812 0.90625 37.65625 0.90625 Z M 37.65625 -0.90625 C 42.625 -0.90625 46.957031 -2.191406 50.65625 -4.765625 C 54.351562 -7.347656 57.234375 -10.957031 59.296875 -15.59375 C 61.359375 -20.238281 62.390625 -25.648438 62.390625 -31.828125 C 62.390625 -38.078125 61.359375 -43.503906 59.296875 -48.109375 C 57.234375 -52.722656 54.351562 -56.316406 50.65625 -58.890625 C 46.957031 -61.460938 42.625 -62.75 37.65625 -62.75 C 32.738281 -62.75 28.429688 -61.460938 24.734375 -58.890625 C 21.035156 -56.316406 18.15625 -52.722656 16.09375 -48.109375 C 14.03125 -43.503906 13 -38.078125 13 -31.828125 C 13 -25.648438 14.03125 -20.238281 16.09375 -15.59375 C 18.15625 -10.957031 21.035156 -7.347656 24.734375 -4.765625 C 28.429688 -2.191406 32.738281 -0.90625 37.65625 -0.90625 Z M 37.65625 -0.90625 "/></g></g></g><g fill="#000000" fill-opacity="1"><g transform="translate(187.665598, 86.927694)"><g><path d="M 55.65625 -6.90625 C 56.445312 -5.519531 57.375 -4.1875 58.4375 -2.90625 C 59.5 -1.632812 60.515625 -0.664062 61.484375 0 L 52.203125 0 C 51.171875 -0.726562 50.257812 -1.546875 49.46875 -2.453125 C 48.6875 -3.359375 48.023438 -4.300781 47.484375 -5.28125 L 37.84375 -22.1875 C 37.226562 -23.21875 36.453125 -24.1875 35.515625 -25.09375 C 34.578125 -26.007812 33.5 -26.738281 32.28125 -27.28125 L 16.828125 -27.28125 L 16.828125 0 L 8.734375 0 L 8.734375 -63.671875 L 33.75 -63.671875 C 38.175781 -63.671875 42.113281 -62.878906 45.5625 -61.296875 C 49.019531 -59.722656 51.765625 -57.570312 53.796875 -54.84375 C 55.828125 -52.113281 56.84375 -49.019531 56.84375 -45.5625 C 56.84375 -42.414062 56.023438 -39.566406 54.390625 -37.015625 C 52.753906 -34.472656 50.507812 -32.378906 47.65625 -30.734375 C 44.8125 -29.097656 41.507812 -28.039062 37.75 -27.5625 C 39.925781 -26.957031 41.863281 -26.078125 43.5625 -24.921875 C 45.257812 -23.765625 46.566406 -22.398438 47.484375 -20.828125 Z M 16.828125 -61.84375 L 16.828125 -29.109375 L 32.203125 -29.109375 C 37.046875 -29.109375 40.953125 -30.59375 43.921875 -33.5625 C 46.898438 -36.53125 48.390625 -40.5 48.390625 -45.46875 C 48.390625 -50.445312 46.898438 -54.421875 43.921875 -57.390625 C 40.953125 -60.359375 37.046875 -61.84375 32.203125 -61.84375 Z M 16.828125 -61.84375 "/></g></g></g><g fill="#000000" fill-opacity="1"><g transform="translate(249.87863, 86.927694)"><g><path d="M 64.21875 -63.671875 L 72.671875 -63.671875 L 72.671875 0 L 64.578125 0 L 64.578125 -59.671875 L 38.46875 -16.546875 L 37.015625 -16.546875 L 10.921875 -59.671875 L 10.921875 0 L 8.734375 0 L 8.734375 -63.671875 L 17.546875 -63.671875 L 40.921875 -25.1875 Z M 64.21875 -63.671875 "/></g></g></g><g fill="#000000" fill-opacity="1"><g transform="translate(331.283108, 86.927694)"><g><path d="M 8.734375 0 L 8.734375 -63.671875 L 16.828125 -63.671875 L 16.828125 0 Z M 8.734375 0 "/></g></g></g><g fill="#000000" fill-opacity="1"><g transform="translate(356.750421, 86.927694)"><g/></g></g><g fill="#000000" fill-opacity="1"><g transform="translate(381.217249, 86.927694)"><g><path d="M 37.203125 -63.671875 L 45.296875 -63.671875 L 45.296875 -20.28125 C 45.296875 -15.789062 44.351562 -11.953125 42.46875 -8.765625 C 40.59375 -5.585938 38.015625 -3.179688 34.734375 -1.546875 C 31.460938 0.0859375 27.738281 0.90625 23.5625 0.90625 C 19.675781 0.90625 16.203125 0.253906 13.140625 -1.046875 C 10.078125 -2.347656 7.664062 -4.132812 5.90625 -6.40625 C 4.15625 -8.6875 3.28125 -11.28125 3.28125 -14.1875 C 3.28125 -15.582031 3.75 -16.734375 4.6875 -17.640625 C 5.625 -18.554688 6.820312 -19.015625 8.28125 -19.015625 C 9.675781 -19.015625 10.8125 -18.554688 11.6875 -17.640625 C 12.5625 -16.734375 13 -15.582031 13 -14.1875 C 13 -12.851562 12.5625 -11.726562 11.6875 -10.8125 C 10.8125 -9.90625 9.675781 -9.453125 8.28125 -9.453125 C 8.03125 -9.453125 7.785156 -9.46875 7.546875 -9.5 C 7.304688 -9.53125 7.035156 -9.578125 6.734375 -9.640625 C 7.765625 -7.035156 9.644531 -4.972656 12.375 -3.453125 C 15.101562 -1.941406 18.222656 -1.1875 21.734375 -1.1875 C 26.710938 -1.1875 30.535156 -2.703125 33.203125 -5.734375 C 35.867188 -8.765625 37.203125 -12.765625 37.203125 -17.734375 Z M 37.203125 -63.671875 "/></g></g></g><g fill="#000000" fill-opacity="1"><g transform="translate(434.607668, 86.927694)"><g/></g></g><g fill="#000000" fill-opacity="1"><g transform="translate(459.074496, 86.927694)"><g><path d="M 56.65625 0 L 47.84375 0 L 28.28125 -28.5625 L 8.546875 0 L 5.734375 0 L 26.921875 -30.5625 L 4.1875 -63.671875 L 13 -63.671875 L 32.28125 -35.5625 L 51.84375 -63.671875 L 54.65625 -63.671875 L 33.65625 -33.5625 Z M 56.65625 0 "/></g></g></g><g fill="#000000" fill-opacity="1"><g transform="translate(519.923188, 86.927694)"><g><path d="M 37.65625 0.90625 C 32.925781 0.90625 28.546875 0.0859375 24.515625 -1.546875 C 20.484375 -3.179688 16.976562 -5.484375 14 -8.453125 C 11.03125 -11.429688 8.710938 -14.90625 7.046875 -18.875 C 5.378906 -22.84375 4.546875 -27.160156 4.546875 -31.828125 C 4.546875 -36.503906 5.378906 -40.828125 7.046875 -44.796875 C 8.710938 -48.765625 11.03125 -52.234375 14 -55.203125 C 16.976562 -58.179688 20.484375 -60.488281 24.515625 -62.125 C 28.546875 -63.757812 32.925781 -64.578125 37.65625 -64.578125 C 42.382812 -64.578125 46.765625 -63.757812 50.796875 -62.125 C 54.828125 -60.488281 58.34375 -58.179688 61.34375 -55.203125 C 64.34375 -52.234375 66.675781 -48.765625 68.34375 -44.796875 C 70.019531 -40.828125 70.859375 -36.503906 70.859375 -31.828125 C 70.859375 -27.160156 70.019531 -22.84375 68.34375 -18.875 C 66.675781 -14.90625 64.34375 -11.429688 61.34375 -8.453125 C 58.34375 -5.484375 54.828125 -3.179688 50.796875 -1.546875 C 46.765625 0.0859375 42.382812 0.90625 37.65625 0.90625 Z M 37.65625 -0.90625 C 42.625 -0.90625 46.957031 -2.191406 50.65625 -4.765625 C 54.351562 -7.347656 57.234375 -10.957031 59.296875 -15.59375 C 61.359375 -20.238281 62.390625 -25.648438 62.390625 -31.828125 C 62.390625 -38.078125 61.359375 -43.503906 59.296875 -48.109375 C 57.234375 -52.722656 54.351562 -56.316406 50.65625 -58.890625 C 46.957031 -61.460938 42.625 -62.75 37.65625 -62.75 C 32.738281 -62.75 28.429688 -61.460938 24.734375 -58.890625 C 21.035156 -56.316406 18.15625 -52.722656 16.09375 -48.109375 C 14.03125 -43.503906 13 -38.078125 13 -31.828125 C 13 -25.648438 14.03125 -20.238281 16.09375 -15.59375 C 18.15625 -10.957031 21.035156 -7.347656 24.734375 -4.765625 C 28.429688 -2.191406 32.738281 -0.90625 37.65625 -0.90625 Z M 37.65625 -0.90625 "/></g></g></g></g></g><path stroke-linecap="butt" transform="matrix(0.75, 0, 0, 0.75, 555.110592, 519.7528)" fill="none" stroke-linejoin="miter" d="M -0.00162263 1.501475 L 289.373393 1.501475 " stroke="#000000" stroke-width="3" stroke-opacity="1" stroke-miterlimit="4"/><g clip-path="url(#0531702fc2)"><g clip-path="url(#1da99f25ae)"><g transform="matrix(1, 0, 0, 1, 514, 384)"><g clip-path="url(#87c7aa3e8e)"><g clip-path="url(#e910e8f75b)"><g clip-path="url(#cfdbb5c51d)"><path fill="#000000" d="M 0.3125 0.757812 L 24.382812 0.757812 L 24.382812 21.890625 L 0.3125 21.890625 Z M 0.3125 0.757812 " fill-opacity="1" fill-rule="nonzero"/></g></g></g></g></g></g><g transform="matrix(1, 0, 0, 1, 174, 450)"><g clip-path="url(#0670685f27)"><g fill="#ff66c4" fill-opacity="1"><g transform="translate(5.905807, 98.025168)"><g><path d="M 23.75 -0.359375 C 22.90625 -0.597656 21.910156 -0.75 20.765625 -0.8125 C 19.617188 -0.875 18.425781 -0.859375 17.1875 -0.765625 C 15.957031 -0.671875 14.769531 -0.519531 13.625 -0.3125 C 12.488281 -0.101562 11.5 0.117188 10.65625 0.359375 C 10.113281 0.535156 9.707031 1.09375 9.4375 2.03125 C 9.164062 2.96875 8.9375 3.976562 8.75 5.0625 C 8.570312 6.144531 8.363281 7.101562 8.125 7.9375 C 7.882812 8.78125 7.460938 9.203125 6.859375 9.203125 C 6.503906 9.203125 5.691406 8.914062 4.421875 8.34375 C 3.160156 7.78125 1.851562 7.117188 0.5 6.359375 C -0.851562 5.609375 -2.070312 4.828125 -3.15625 4.015625 C -4.238281 3.203125 -4.78125 2.554688 -4.78125 2.078125 C -4.78125 1.359375 -4.554688 0.832031 -4.109375 0.5 C -3.660156 0.164062 -3.101562 -0.132812 -2.4375 -0.40625 C -1.769531 -0.675781 -1.015625 -0.960938 -0.171875 -1.265625 C 0.660156 -1.566406 1.484375 -2.003906 2.296875 -2.578125 C 3.109375 -3.148438 3.832031 -3.929688 4.46875 -4.921875 C 5.101562 -5.910156 5.597656 -7.21875 5.953125 -8.84375 C 7.398438 -15.832031 9.265625 -22.578125 11.546875 -29.078125 C 13.835938 -35.578125 16.160156 -42.164062 18.515625 -48.84375 L 18.875 -50.109375 L 17.875 -50.109375 C 16.675781 -50.109375 15.503906 -49.835938 14.359375 -49.296875 C 13.210938 -48.753906 12.035156 -48.484375 10.828125 -48.484375 C 10.046875 -48.484375 9.203125 -48.875 8.296875 -49.65625 C 7.398438 -50.445312 6.921875 -51.234375 6.859375 -52.015625 L 7.578125 -52.640625 C 11.015625 -53.847656 14.476562 -55.007812 17.96875 -56.125 C 21.457031 -57.238281 25.039062 -57.796875 28.71875 -57.796875 C 29.132812 -57.796875 29.628906 -57.6875 30.203125 -57.46875 C 30.773438 -57.257812 31.316406 -56.972656 31.828125 -56.609375 C 32.335938 -56.253906 32.757812 -55.832031 33.09375 -55.34375 C 33.425781 -54.863281 33.59375 -54.382812 33.59375 -53.90625 C 33.59375 -53.539062 33.273438 -53.269531 32.640625 -53.09375 C 32.003906 -52.914062 31.28125 -52.765625 30.46875 -52.640625 C 29.65625 -52.523438 28.859375 -52.421875 28.078125 -52.328125 C 27.296875 -52.234375 26.785156 -52.128906 26.546875 -52.015625 C 25.828125 -51.710938 25.453125 -51.316406 25.421875 -50.828125 C 25.390625 -50.347656 25.285156 -49.78125 25.109375 -49.125 C 23.722656 -44.25 22.066406 -39.414062 20.140625 -34.625 C 18.210938 -29.84375 16.46875 -25.015625 14.90625 -20.140625 C 14.113281 -17.734375 13.476562 -15.304688 13 -12.859375 C 12.519531 -10.421875 11.945312 -7.972656 11.28125 -5.515625 L 11.734375 -5.0625 C 12.335938 -5.0625 13.347656 -5.0625 14.765625 -5.0625 C 16.179688 -5.0625 17.625 -4.953125 19.09375 -4.734375 C 20.570312 -4.523438 21.878906 -4.179688 23.015625 -3.703125 C 24.160156 -3.222656 24.734375 -2.5 24.734375 -1.53125 C 24.734375 -0.875 24.40625 -0.484375 23.75 -0.359375 Z M 23.75 -0.359375 "/></g></g></g><g fill="#ff66c4" fill-opacity="1"><g transform="translate(37.145863, 98.025168)"><g><path d="M 14.453125 0.546875 C 14.566406 -1.617188 15.132812 -3.753906 16.15625 -5.859375 C 17.1875 -7.972656 18.363281 -10.066406 19.6875 -12.140625 C 21.007812 -14.222656 22.285156 -16.285156 23.515625 -18.328125 C 24.753906 -20.378906 25.644531 -22.425781 26.1875 -24.46875 L 25.640625 -24.734375 C 25.035156 -24.191406 24.085938 -23.195312 22.796875 -21.75 C 21.503906 -20.3125 20.046875 -18.644531 18.421875 -16.75 C 16.796875 -14.851562 15.109375 -12.894531 13.359375 -10.875 C 11.617188 -8.863281 9.992188 -7 8.484375 -5.28125 C 6.984375 -3.5625 5.734375 -2.160156 4.734375 -1.078125 C 3.742188 0.00390625 3.1875 0.546875 3.0625 0.546875 C 2.707031 0.546875 2.347656 0.378906 1.984375 0.046875 C 1.617188 -0.285156 1.316406 -0.691406 1.078125 -1.171875 C 0.835938 -1.648438 0.640625 -2.144531 0.484375 -2.65625 C 0.335938 -3.175781 0.265625 -3.582031 0.265625 -3.875 C 0.265625 -4.363281 0.519531 -5.207031 1.03125 -6.40625 C 1.550781 -7.613281 2.21875 -9.03125 3.03125 -10.65625 C 3.84375 -12.28125 4.742188 -14.007812 5.734375 -15.84375 C 6.722656 -17.675781 7.671875 -19.453125 8.578125 -21.171875 C 9.484375 -22.890625 10.296875 -24.46875 11.015625 -25.90625 C 11.734375 -27.351562 12.242188 -28.46875 12.546875 -29.25 C 12.671875 -29.5 12.773438 -29.800781 12.859375 -30.15625 C 12.953125 -30.519531 13.179688 -30.703125 13.546875 -30.703125 C 14.148438 -30.703125 14.859375 -30.320312 15.671875 -29.5625 C 16.484375 -28.8125 16.890625 -28.109375 16.890625 -27.453125 C 16.890625 -26.972656 16.628906 -26.066406 16.109375 -24.734375 C 15.597656 -23.410156 15.007812 -21.984375 14.34375 -20.453125 C 13.6875 -18.921875 13.054688 -17.445312 12.453125 -16.03125 C 11.859375 -14.613281 11.46875 -13.546875 11.28125 -12.828125 C 11.769531 -13.179688 12.421875 -13.765625 13.234375 -14.578125 C 14.046875 -15.390625 14.945312 -16.304688 15.9375 -17.328125 C 16.925781 -18.359375 17.929688 -19.414062 18.953125 -20.5 C 19.984375 -21.582031 20.929688 -22.585938 21.796875 -23.515625 C 22.671875 -24.453125 23.425781 -25.222656 24.0625 -25.828125 C 24.695312 -26.429688 25.101562 -26.789062 25.28125 -26.90625 C 26.363281 -27.445312 27.429688 -27.367188 28.484375 -26.671875 C 29.535156 -25.984375 30.003906 -24.859375 29.890625 -23.296875 C 29.710938 -21.492188 28.988281 -19.414062 27.71875 -17.0625 C 26.457031 -14.71875 25.085938 -12.367188 23.609375 -10.015625 C 22.140625 -7.671875 20.800781 -5.457031 19.59375 -3.375 C 18.382812 -1.300781 17.78125 0.394531 17.78125 1.71875 C 18.507812 1.59375 19.609375 1.046875 21.078125 0.078125 C 22.554688 -0.878906 24.179688 -2.019531 25.953125 -3.34375 C 27.734375 -4.664062 29.554688 -6.09375 31.421875 -7.625 C 33.285156 -9.164062 35.015625 -10.582031 36.609375 -11.875 C 38.210938 -13.164062 39.554688 -14.25 40.640625 -15.125 C 41.722656 -16 42.351562 -16.46875 42.53125 -16.53125 L 43.703125 -15.34375 C 43.222656 -14.863281 42.332031 -14.050781 41.03125 -12.90625 C 39.738281 -11.769531 38.234375 -10.460938 36.515625 -8.984375 C 34.804688 -7.503906 32.972656 -5.984375 31.015625 -4.421875 C 29.054688 -2.859375 27.160156 -1.425781 25.328125 -0.125 C 23.492188 1.164062 21.835938 2.226562 20.359375 3.0625 C 18.890625 3.90625 17.789062 4.328125 17.0625 4.328125 C 16.519531 4.328125 16.066406 4.175781 15.703125 3.875 C 15.347656 3.582031 15.078125 3.238281 14.890625 2.84375 C 14.710938 2.445312 14.59375 2.039062 14.53125 1.625 C 14.476562 1.207031 14.453125 0.847656 14.453125 0.546875 Z M 14.453125 0.546875 "/></g></g></g><g fill="#ff66c4" fill-opacity="1"><g transform="translate(73.261536, 98.025168)"><g><path d="M 14.453125 0.546875 C 14.566406 -1.617188 15.132812 -3.753906 16.15625 -5.859375 C 17.1875 -7.972656 18.363281 -10.066406 19.6875 -12.140625 C 21.007812 -14.222656 22.285156 -16.285156 23.515625 -18.328125 C 24.753906 -20.378906 25.644531 -22.425781 26.1875 -24.46875 L 25.640625 -24.734375 C 25.035156 -24.191406 24.085938 -23.195312 22.796875 -21.75 C 21.503906 -20.3125 20.046875 -18.644531 18.421875 -16.75 C 16.796875 -14.851562 15.109375 -12.894531 13.359375 -10.875 C 11.617188 -8.863281 9.992188 -7 8.484375 -5.28125 C 6.984375 -3.5625 5.734375 -2.160156 4.734375 -1.078125 C 3.742188 0.00390625 3.1875 0.546875 3.0625 0.546875 C 2.707031 0.546875 2.347656 0.378906 1.984375 0.046875 C 1.617188 -0.285156 1.316406 -0.691406 1.078125 -1.171875 C 0.835938 -1.648438 0.640625 -2.144531 0.484375 -2.65625 C 0.335938 -3.175781 0.265625 -3.582031 0.265625 -3.875 C 0.265625 -4.363281 0.519531 -5.207031 1.03125 -6.40625 C 1.550781 -7.613281 2.21875 -9.03125 3.03125 -10.65625 C 3.84375 -12.28125 4.742188 -14.007812 5.734375 -15.84375 C 6.722656 -17.675781 7.671875 -19.453125 8.578125 -21.171875 C 9.484375 -22.890625 10.296875 -24.46875 11.015625 -25.90625 C 11.734375 -27.351562 12.242188 -28.46875 12.546875 -29.25 C 12.671875 -29.5 12.773438 -29.800781 12.859375 -30.15625 C 12.953125 -30.519531 13.179688 -30.703125 13.546875 -30.703125 C 14.148438 -30.703125 14.859375 -30.320312 15.671875 -29.5625 C 16.484375 -28.8125 16.890625 -28.109375 16.890625 -27.453125 C 16.890625 -26.972656 16.628906 -26.066406 16.109375 -24.734375 C 15.597656 -23.410156 15.007812 -21.984375 14.34375 -20.453125 C 13.6875 -18.921875 13.054688 -17.445312 12.453125 -16.03125 C 11.859375 -14.613281 11.46875 -13.546875 11.28125 -12.828125 C 11.769531 -13.179688 12.421875 -13.765625 13.234375 -14.578125 C 14.046875 -15.390625 14.945312 -16.304688 15.9375 -17.328125 C 16.925781 -18.359375 17.929688 -19.414062 18.953125 -20.5 C 19.984375 -21.582031 20.929688 -22.585938 21.796875 -23.515625 C 22.671875 -24.453125 23.425781 -25.222656 24.0625 -25.828125 C 24.695312 -26.429688 25.101562 -26.789062 25.28125 -26.90625 C 26.363281 -27.445312 27.429688 -27.367188 28.484375 -26.671875 C 29.535156 -25.984375 30.003906 -24.859375 29.890625 -23.296875 C 29.710938 -21.492188 28.988281 -19.414062 27.71875 -17.0625 C 26.457031 -14.71875 25.085938 -12.367188 23.609375 -10.015625 C 22.140625 -7.671875 20.800781 -5.457031 19.59375 -3.375 C 18.382812 -1.300781 17.78125 0.394531 17.78125 1.71875 C 18.507812 1.59375 19.609375 1.046875 21.078125 0.078125 C 22.554688 -0.878906 24.179688 -2.019531 25.953125 -3.34375 C 27.734375 -4.664062 29.554688 -6.09375 31.421875 -7.625 C 33.285156 -9.164062 35.015625 -10.582031 36.609375 -11.875 C 38.210938 -13.164062 39.554688 -14.25 40.640625 -15.125 C 41.722656 -16 42.351562 -16.46875 42.53125 -16.53125 L 43.703125 -15.34375 C 43.222656 -14.863281 42.332031 -14.050781 41.03125 -12.90625 C 39.738281 -11.769531 38.234375 -10.460938 36.515625 -8.984375 C 34.804688 -7.503906 32.972656 -5.984375 31.015625 -4.421875 C 29.054688 -2.859375 27.160156 -1.425781 25.328125 -0.125 C 23.492188 1.164062 21.835938 2.226562 20.359375 3.0625 C 18.890625 3.90625 17.789062 4.328125 17.0625 4.328125 C 16.519531 4.328125 16.066406 4.175781 15.703125 3.875 C 15.347656 3.582031 15.078125 3.238281 14.890625 2.84375 C 14.710938 2.445312 14.59375 2.039062 14.53125 1.625 C 14.476562 1.207031 14.453125 0.847656 14.453125 0.546875 Z M 14.453125 0.546875 "/></g></g></g><g fill="#ff66c4" fill-opacity="1"><g transform="translate(109.377208, 98.025168)"><g><path d="M 6.046875 0.8125 C 4.785156 0.75 3.734375 0.429688 2.890625 -0.140625 C 2.046875 -0.710938 1.394531 -1.429688 0.9375 -2.296875 C 0.488281 -3.171875 0.1875 -4.117188 0.03125 -5.140625 C -0.113281 -6.171875 -0.125 -7.195312 0 -8.21875 C 0.175781 -9.957031 0.726562 -11.925781 1.65625 -14.125 C 2.59375 -16.320312 3.738281 -18.382812 5.09375 -20.3125 C 6.457031 -22.238281 7.953125 -23.863281 9.578125 -25.1875 C 11.203125 -26.507812 12.828125 -27.171875 14.453125 -27.171875 C 15.953125 -27.171875 17.210938 -26.539062 18.234375 -25.28125 C 19.265625 -24.019531 19.78125 -22.664062 19.78125 -21.21875 C 19.78125 -19.957031 19.28125 -18.539062 18.28125 -16.96875 C 17.289062 -15.40625 16.117188 -13.960938 14.765625 -12.640625 C 13.410156 -11.316406 12.007812 -10.203125 10.5625 -9.296875 C 9.113281 -8.398438 7.941406 -7.953125 7.046875 -7.953125 C 6.742188 -7.953125 6.457031 -8.023438 6.1875 -8.171875 C 5.914062 -8.316406 5.660156 -8.453125 5.421875 -8.578125 C 5.054688 -8.273438 4.8125 -7.835938 4.6875 -7.265625 C 4.570312 -6.691406 4.554688 -6.117188 4.640625 -5.546875 C 4.734375 -4.984375 4.929688 -4.488281 5.234375 -4.0625 C 5.535156 -3.644531 5.988281 -3.4375 6.59375 -3.4375 C 7.675781 -3.4375 8.984375 -3.75 10.515625 -4.375 C 12.054688 -5.007812 13.726562 -5.835938 15.53125 -6.859375 C 17.332031 -7.878906 19.195312 -9.019531 21.125 -10.28125 C 23.050781 -11.550781 24.882812 -12.816406 26.625 -14.078125 C 28.375 -15.347656 29.988281 -16.550781 31.46875 -17.6875 C 32.945312 -18.832031 34.132812 -19.800781 35.03125 -20.59375 L 35.84375 -20.765625 L 35.84375 -20.671875 L 36.125 -20.21875 L 36.125 -20.140625 C 35.09375 -19.054688 33.820312 -17.789062 32.3125 -16.34375 C 30.8125 -14.894531 29.1875 -13.390625 27.4375 -11.828125 C 25.695312 -10.265625 23.878906 -8.710938 21.984375 -7.171875 C 20.085938 -5.640625 18.207031 -4.269531 16.34375 -3.0625 C 14.476562 -1.863281 12.65625 -0.898438 10.875 -0.171875 C 9.101562 0.546875 7.492188 0.875 6.046875 0.8125 Z M 9.125 -14.8125 C 10.320312 -15.46875 11.414062 -16.25 12.40625 -17.15625 C 13.40625 -18.0625 14.238281 -19.144531 14.90625 -20.40625 L 14.90625 -20.859375 C 14.414062 -20.617188 13.882812 -20.253906 13.3125 -19.765625 C 12.75 -19.285156 12.164062 -18.742188 11.5625 -18.140625 C 10.957031 -17.546875 10.410156 -16.945312 9.921875 -16.34375 C 9.441406 -15.738281 9.082031 -15.226562 8.84375 -14.8125 Z M 9.125 -14.8125 "/></g></g></g><g fill="#ff66c4" fill-opacity="1"><g transform="translate(134.297021, 98.025168)"><g><path d="M 24.296875 -24.5625 C 24.296875 -24.863281 24.304688 -25.191406 24.328125 -25.546875 C 24.359375 -25.910156 24.40625 -26.242188 24.46875 -26.546875 L 24.109375 -26.734375 C 23.203125 -26.734375 22.175781 -26.3125 21.03125 -25.46875 C 19.894531 -24.625 18.738281 -23.535156 17.5625 -22.203125 C 16.382812 -20.878906 15.191406 -19.390625 13.984375 -17.734375 C 12.785156 -16.085938 11.6875 -14.460938 10.6875 -12.859375 C 9.695312 -11.265625 8.8125 -9.773438 8.03125 -8.390625 C 7.25 -7.015625 6.679688 -5.929688 6.328125 -5.140625 C 6.203125 -4.898438 6.019531 -4.523438 5.78125 -4.015625 C 5.539062 -3.503906 5.285156 -2.992188 5.015625 -2.484375 C 4.742188 -1.972656 4.441406 -1.519531 4.109375 -1.125 C 3.773438 -0.738281 3.457031 -0.546875 3.15625 -0.546875 C 2.738281 -0.546875 2.363281 -0.722656 2.03125 -1.078125 C 1.695312 -1.441406 1.410156 -1.863281 1.171875 -2.34375 C 0.929688 -2.820312 0.734375 -3.316406 0.578125 -3.828125 C 0.429688 -4.347656 0.359375 -4.785156 0.359375 -5.140625 C 0.359375 -5.390625 0.613281 -6.113281 1.125 -7.3125 C 1.632812 -8.519531 2.28125 -9.960938 3.0625 -11.640625 C 3.851562 -13.328125 4.710938 -15.148438 5.640625 -17.109375 C 6.578125 -19.066406 7.476562 -20.960938 8.34375 -22.796875 C 9.21875 -24.628906 10 -26.269531 10.6875 -27.71875 C 11.382812 -29.164062 11.851562 -30.21875 12.09375 -30.875 L 12.90625 -31.515625 C 13.332031 -31.515625 13.769531 -31.40625 14.21875 -31.1875 C 14.675781 -30.976562 15.097656 -30.691406 15.484375 -30.328125 C 15.878906 -29.972656 16.195312 -29.566406 16.4375 -29.109375 C 16.675781 -28.660156 16.796875 -28.226562 16.796875 -27.8125 C 16.796875 -27.507812 16.734375 -27.175781 16.609375 -26.8125 C 16.492188 -26.457031 16.46875 -26.128906 16.53125 -25.828125 C 16.945312 -26.242188 17.53125 -26.753906 18.28125 -27.359375 C 19.03125 -27.960938 19.84375 -28.519531 20.71875 -29.03125 C 21.59375 -29.539062 22.453125 -29.972656 23.296875 -30.328125 C 24.140625 -30.691406 24.890625 -30.875 25.546875 -30.875 C 26.578125 -30.875 27.570312 -30.484375 28.53125 -29.703125 C 29.5 -28.921875 29.984375 -27.988281 29.984375 -26.90625 C 29.984375 -26.300781 29.890625 -25.726562 29.703125 -25.1875 C 29.523438 -24.644531 29.347656 -24.101562 29.171875 -23.5625 C 29.347656 -23.625 29.601562 -23.742188 29.9375 -23.921875 C 30.269531 -24.109375 30.613281 -24.289062 30.96875 -24.46875 C 31.332031 -24.644531 31.664062 -24.804688 31.96875 -24.953125 C 32.269531 -25.109375 32.507812 -25.1875 32.6875 -25.1875 L 33.046875 -25.1875 C 32.984375 -25.007812 32.679688 -24.679688 32.140625 -24.203125 C 31.597656 -23.722656 30.992188 -23.222656 30.328125 -22.703125 C 29.671875 -22.191406 29.054688 -21.738281 28.484375 -21.34375 C 27.910156 -20.957031 27.566406 -20.765625 27.453125 -20.765625 C 26.609375 -20.765625 25.867188 -21.21875 25.234375 -22.125 C 24.609375 -23.03125 24.296875 -23.84375 24.296875 -24.5625 Z M 24.296875 -24.5625 "/></g></g></g><g fill="#ff66c4" fill-opacity="1"><g transform="translate(165.085644, 98.025168)"><g/></g></g><g fill="#ff66c4" fill-opacity="1"><g transform="translate(186.845326, 98.025168)"><g><path d="M -0.1875 -10.015625 C -0.1875 -14.171875 0.695312 -18.640625 2.46875 -23.421875 C 4.25 -28.210938 6.539062 -32.878906 9.34375 -37.421875 C 12.144531 -41.972656 15.242188 -46.203125 18.640625 -50.109375 C 22.046875 -54.023438 25.375 -57.25 28.625 -59.78125 C 28.75 -59.894531 28.988281 -60.039062 29.34375 -60.21875 C 29.707031 -60.40625 29.976562 -60.5 30.15625 -60.5 C 30.757812 -60.5 31.210938 -60.179688 31.515625 -59.546875 C 31.816406 -58.921875 32.238281 -58.484375 32.78125 -58.234375 C 32.957031 -58.535156 33.222656 -58.910156 33.578125 -59.359375 C 33.941406 -59.816406 34.367188 -60.046875 34.859375 -60.046875 C 35.640625 -60.046875 36.421875 -59.742188 37.203125 -59.140625 C 37.984375 -58.535156 38.375 -57.816406 38.375 -56.984375 C 38.375 -56.441406 38.132812 -55.503906 37.65625 -54.171875 C 37.175781 -52.847656 36.554688 -51.34375 35.796875 -49.65625 C 35.046875 -47.976562 34.234375 -46.25 33.359375 -44.46875 C 32.492188 -42.695312 31.65625 -41.070312 30.84375 -39.59375 C 30.03125 -38.125 29.304688 -36.90625 28.671875 -35.9375 C 28.035156 -34.976562 27.628906 -34.5 27.453125 -34.5 C 26.242188 -34.5 25.441406 -34.976562 25.046875 -35.9375 C 24.660156 -36.90625 24.46875 -37.867188 24.46875 -38.828125 C 24.46875 -39.972656 24.691406 -41.128906 25.140625 -42.296875 C 25.597656 -43.472656 26.140625 -44.648438 26.765625 -45.828125 C 27.398438 -47.003906 28.0625 -48.144531 28.75 -49.25 C 29.445312 -50.363281 30.035156 -51.4375 30.515625 -52.46875 L 30.0625 -52.28125 C 27.414062 -49.8125 24.601562 -46.800781 21.625 -43.25 C 18.644531 -39.695312 15.890625 -35.921875 13.359375 -31.921875 C 10.835938 -27.921875 8.734375 -23.84375 7.046875 -19.6875 C 5.359375 -15.53125 4.515625 -11.585938 4.515625 -7.859375 C 4.515625 -7.128906 4.570312 -6.175781 4.6875 -5 C 4.8125 -3.832031 5.050781 -2.707031 5.40625 -1.625 C 5.769531 -0.539062 6.269531 0.390625 6.90625 1.171875 C 7.539062 1.953125 8.367188 2.34375 9.390625 2.34375 C 10.171875 2.34375 11.421875 1.90625 13.140625 1.03125 C 14.859375 0.164062 16.828125 -0.972656 19.046875 -2.390625 C 21.273438 -3.804688 23.625 -5.382812 26.09375 -7.125 C 28.5625 -8.875 30.894531 -10.59375 33.09375 -12.28125 C 35.289062 -13.96875 37.242188 -15.53125 38.953125 -16.96875 C 40.671875 -18.414062 41.921875 -19.59375 42.703125 -20.5 L 43.703125 -21.046875 C 44.367188 -20.921875 44.703125 -20.585938 44.703125 -20.046875 C 44.703125 -19.804688 43.992188 -19.007812 42.578125 -17.65625 C 41.160156 -16.300781 39.351562 -14.6875 37.15625 -12.8125 C 34.957031 -10.945312 32.503906 -8.960938 29.796875 -6.859375 C 27.085938 -4.753906 24.4375 -2.8125 21.84375 -1.03125 C 19.257812 0.738281 16.882812 2.207031 14.71875 3.375 C 12.550781 4.550781 10.894531 5.140625 9.75 5.140625 C 8.007812 5.140625 6.519531 4.613281 5.28125 3.5625 C 4.050781 2.507812 3.03125 1.203125 2.21875 -0.359375 C 1.40625 -1.921875 0.800781 -3.578125 0.40625 -5.328125 C 0.0078125 -7.078125 -0.1875 -8.640625 -0.1875 -10.015625 Z M -0.1875 -10.015625 "/></g></g></g><g fill="#ff66c4" fill-opacity="1"><g transform="translate(224.225053, 98.025168)"><g><path d="M 6.328125 -4.515625 C 6.679688 -4.640625 7.414062 -5.046875 8.53125 -5.734375 C 9.644531 -6.421875 10.953125 -7.257812 12.453125 -8.25 C 13.960938 -9.25 15.5625 -10.320312 17.25 -11.46875 C 18.9375 -12.613281 20.5 -13.648438 21.9375 -14.578125 C 23.382812 -15.515625 24.601562 -16.296875 25.59375 -16.921875 C 26.59375 -17.554688 27.179688 -17.875 27.359375 -17.875 C 27.660156 -17.875 27.929688 -17.90625 28.171875 -17.96875 C 28.410156 -18.03125 28.59375 -17.941406 28.71875 -17.703125 C 28.59375 -17.398438 27.910156 -16.734375 26.671875 -15.703125 C 25.441406 -14.679688 23.9375 -13.492188 22.15625 -12.140625 C 20.382812 -10.785156 18.472656 -9.351562 16.421875 -7.84375 C 14.378906 -6.34375 12.457031 -4.960938 10.65625 -3.703125 C 8.851562 -2.441406 7.300781 -1.40625 6 -0.59375 C 4.707031 0.21875 3.972656 0.625 3.796875 0.625 C 3.253906 0.625 2.738281 0.472656 2.25 0.171875 C 1.769531 -0.117188 1.347656 -0.503906 0.984375 -0.984375 C 0.628906 -1.472656 0.34375 -2.003906 0.125 -2.578125 C -0.0820312 -3.148438 -0.1875 -3.707031 -0.1875 -4.25 C -0.1875 -5.269531 0.0664062 -6.632812 0.578125 -8.34375 C 1.097656 -10.0625 1.71875 -11.835938 2.4375 -13.671875 C 3.15625 -15.515625 3.890625 -17.273438 4.640625 -18.953125 C 5.398438 -20.640625 6.019531 -22 6.5 -23.03125 C 6.675781 -23.382812 7.066406 -24.191406 7.671875 -25.453125 C 8.273438 -26.722656 8.921875 -28.050781 9.609375 -29.4375 C 10.304688 -30.820312 10.96875 -32.054688 11.59375 -33.140625 C 12.226562 -34.222656 12.664062 -34.765625 12.90625 -34.765625 C 13.9375 -34.765625 14.898438 -34.414062 15.796875 -33.71875 C 16.703125 -33.03125 17.304688 -32.207031 17.609375 -31.25 C 17.304688 -30.707031 16.804688 -29.742188 16.109375 -28.359375 C 15.421875 -26.972656 14.671875 -25.359375 13.859375 -23.515625 C 13.046875 -21.679688 12.1875 -19.738281 11.28125 -17.6875 C 10.382812 -15.644531 9.554688 -13.71875 8.796875 -11.90625 C 8.046875 -10.101562 7.445312 -8.523438 7 -7.171875 C 6.550781 -5.816406 6.328125 -4.929688 6.328125 -4.515625 Z M 20.859375 -48.40625 C 21.097656 -48.40625 21.488281 -48.328125 22.03125 -48.171875 C 22.570312 -48.023438 23.113281 -47.828125 23.65625 -47.578125 C 24.195312 -47.335938 24.660156 -47.066406 25.046875 -46.765625 C 25.441406 -46.472656 25.640625 -46.144531 25.640625 -45.78125 C 25.640625 -45.363281 25.414062 -44.804688 24.96875 -44.109375 C 24.519531 -43.421875 23.992188 -42.742188 23.390625 -42.078125 C 22.785156 -41.410156 22.164062 -40.835938 21.53125 -40.359375 C 20.90625 -39.878906 20.410156 -39.640625 20.046875 -39.640625 C 19.378906 -39.640625 18.671875 -40.046875 17.921875 -40.859375 C 17.171875 -41.671875 16.796875 -42.410156 16.796875 -43.078125 C 16.796875 -43.253906 16.972656 -43.628906 17.328125 -44.203125 C 17.691406 -44.773438 18.097656 -45.375 18.546875 -46 C 19.003906 -46.632812 19.457031 -47.191406 19.90625 -47.671875 C 20.363281 -48.160156 20.679688 -48.40625 20.859375 -48.40625 Z M 20.859375 -48.40625 "/></g></g></g><g fill="#ff66c4" fill-opacity="1"><g transform="translate(246.707044, 98.025168)"><g><path d="M 24.296875 -24.5625 C 24.296875 -24.863281 24.304688 -25.191406 24.328125 -25.546875 C 24.359375 -25.910156 24.40625 -26.242188 24.46875 -26.546875 L 24.109375 -26.734375 C 23.203125 -26.734375 22.175781 -26.3125 21.03125 -25.46875 C 19.894531 -24.625 18.738281 -23.535156 17.5625 -22.203125 C 16.382812 -20.878906 15.191406 -19.390625 13.984375 -17.734375 C 12.785156 -16.085938 11.6875 -14.460938 10.6875 -12.859375 C 9.695312 -11.265625 8.8125 -9.773438 8.03125 -8.390625 C 7.25 -7.015625 6.679688 -5.929688 6.328125 -5.140625 C 6.203125 -4.898438 6.019531 -4.523438 5.78125 -4.015625 C 5.539062 -3.503906 5.285156 -2.992188 5.015625 -2.484375 C 4.742188 -1.972656 4.441406 -1.519531 4.109375 -1.125 C 3.773438 -0.738281 3.457031 -0.546875 3.15625 -0.546875 C 2.738281 -0.546875 2.363281 -0.722656 2.03125 -1.078125 C 1.695312 -1.441406 1.410156 -1.863281 1.171875 -2.34375 C 0.929688 -2.820312 0.734375 -3.316406 0.578125 -3.828125 C 0.429688 -4.347656 0.359375 -4.785156 0.359375 -5.140625 C 0.359375 -5.390625 0.613281 -6.113281 1.125 -7.3125 C 1.632812 -8.519531 2.28125 -9.960938 3.0625 -11.640625 C 3.851562 -13.328125 4.710938 -15.148438 5.640625 -17.109375 C 6.578125 -19.066406 7.476562 -20.960938 8.34375 -22.796875 C 9.21875 -24.628906 10 -26.269531 10.6875 -27.71875 C 11.382812 -29.164062 11.851562 -30.21875 12.09375 -30.875 L 12.90625 -31.515625 C 13.332031 -31.515625 13.769531 -31.40625 14.21875 -31.1875 C 14.675781 -30.976562 15.097656 -30.691406 15.484375 -30.328125 C 15.878906 -29.972656 16.195312 -29.566406 16.4375 -29.109375 C 16.675781 -28.660156 16.796875 -28.226562 16.796875 -27.8125 C 16.796875 -27.507812 16.734375 -27.175781 16.609375 -26.8125 C 16.492188 -26.457031 16.46875 -26.128906 16.53125 -25.828125 C 16.945312 -26.242188 17.53125 -26.753906 18.28125 -27.359375 C 19.03125 -27.960938 19.84375 -28.519531 20.71875 -29.03125 C 21.59375 -29.539062 22.453125 -29.972656 23.296875 -30.328125 C 24.140625 -30.691406 24.890625 -30.875 25.546875 -30.875 C 26.578125 -30.875 27.570312 -30.484375 28.53125 -29.703125 C 29.5 -28.921875 29.984375 -27.988281 29.984375 -26.90625 C 29.984375 -26.300781 29.890625 -25.726562 29.703125 -25.1875 C 29.523438 -24.644531 29.347656 -24.101562 29.171875 -23.5625 C 29.347656 -23.625 29.601562 -23.742188 29.9375 -23.921875 C 30.269531 -24.109375 30.613281 -24.289062 30.96875 -24.46875 C 31.332031 -24.644531 31.664062 -24.804688 31.96875 -24.953125 C 32.269531 -25.109375 32.507812 -25.1875 32.6875 -25.1875 L 33.046875 -25.1875 C 32.984375 -25.007812 32.679688 -24.679688 32.140625 -24.203125 C 31.597656 -23.722656 30.992188 -23.222656 30.328125 -22.703125 C 29.671875 -22.191406 29.054688 -21.738281 28.484375 -21.34375 C 27.910156 -20.957031 27.566406 -20.765625 27.453125 -20.765625 C 26.609375 -20.765625 25.867188 -21.21875 25.234375 -22.125 C 24.609375 -23.03125 24.296875 -23.84375 24.296875 -24.5625 Z M 24.296875 -24.5625 "/></g></g></g><g fill="#ff66c4" fill-opacity="1"><g transform="translate(277.495668, 98.025168)"><g><path d="M 0.71875 -6.40625 C 0.71875 -9.539062 1.453125 -12.625 2.921875 -15.65625 C 4.398438 -18.695312 6.296875 -21.5 8.609375 -24.0625 C 10.929688 -26.625 13.535156 -28.851562 16.421875 -30.75 C 19.316406 -32.644531 22.179688 -34.039062 25.015625 -34.9375 C 25.554688 -34.9375 26.25 -34.863281 27.09375 -34.71875 C 27.9375 -34.570312 28.75 -34.347656 29.53125 -34.046875 C 30.3125 -33.742188 30.988281 -33.347656 31.5625 -32.859375 C 32.132812 -32.378906 32.421875 -31.75 32.421875 -30.96875 C 32.421875 -30.550781 32.070312 -29.8125 31.375 -28.75 C 30.6875 -27.695312 29.890625 -26.628906 28.984375 -25.546875 C 28.078125 -24.460938 27.1875 -23.5 26.3125 -22.65625 C 25.445312 -21.820312 24.800781 -21.40625 24.375 -21.40625 C 23.53125 -21.40625 22.910156 -21.8125 22.515625 -22.625 C 22.128906 -23.4375 21.9375 -24.171875 21.9375 -24.828125 C 21.9375 -25.128906 21.953125 -25.445312 21.984375 -25.78125 C 22.015625 -26.113281 22.0625 -26.429688 22.125 -26.734375 C 19.957031 -25.460938 18 -24.164062 16.25 -22.84375 C 14.507812 -21.519531 12.960938 -20.085938 11.609375 -18.546875 C 10.253906 -17.015625 9.035156 -15.300781 7.953125 -13.40625 C 6.867188 -11.507812 5.875 -9.390625 4.96875 -7.046875 C 4.84375 -6.742188 4.691406 -6.410156 4.515625 -6.046875 C 4.335938 -5.691406 4.25 -5.332031 4.25 -4.96875 C 4.25 -4.601562 4.394531 -4.300781 4.6875 -4.0625 C 4.988281 -3.820312 5.320312 -3.703125 5.6875 -3.703125 C 6.707031 -3.703125 8.164062 -4.046875 10.0625 -4.734375 C 11.957031 -5.429688 14.078125 -6.335938 16.421875 -7.453125 C 18.773438 -8.566406 21.226562 -9.800781 23.78125 -11.15625 C 26.34375 -12.507812 28.8125 -13.847656 31.1875 -15.171875 C 33.570312 -16.492188 35.742188 -17.738281 37.703125 -18.90625 C 39.660156 -20.082031 41.179688 -21.035156 42.265625 -21.765625 L 42.984375 -20.953125 C 42.316406 -20.285156 41.019531 -19.316406 39.09375 -18.046875 C 37.164062 -16.785156 34.9375 -15.390625 32.40625 -13.859375 C 29.882812 -12.328125 27.207031 -10.773438 24.375 -9.203125 C 21.550781 -7.640625 18.875 -6.210938 16.34375 -4.921875 C 13.8125 -3.628906 11.597656 -2.5625 9.703125 -1.71875 C 7.804688 -0.875 6.53125 -0.453125 5.875 -0.453125 C 5.144531 -0.453125 4.460938 -0.628906 3.828125 -0.984375 C 3.203125 -1.347656 2.660156 -1.816406 2.203125 -2.390625 C 1.753906 -2.960938 1.394531 -3.609375 1.125 -4.328125 C 0.851562 -5.054688 0.71875 -5.75 0.71875 -6.40625 Z M 0.71875 -6.40625 "/></g></g></g><g fill="#ff66c4" fill-opacity="1"><g transform="translate(313.340473, 98.025168)"><g><path d="M 0.265625 -2.703125 C 0.265625 -4.578125 0.582031 -6.894531 1.21875 -9.65625 C 1.851562 -12.425781 2.679688 -15.421875 3.703125 -18.640625 C 4.722656 -21.867188 5.847656 -25.210938 7.078125 -28.671875 C 8.316406 -32.128906 9.566406 -35.46875 10.828125 -38.6875 C 12.097656 -41.90625 13.273438 -44.914062 14.359375 -47.71875 C 15.441406 -50.519531 16.3125 -52.882812 16.96875 -54.8125 L 17.875 -55.625 C 18.539062 -55.5625 19.304688 -55.210938 20.171875 -54.578125 C 21.046875 -53.953125 21.484375 -53.25 21.484375 -52.46875 C 21.484375 -52.101562 21.242188 -51.125 20.765625 -49.53125 C 20.285156 -47.9375 19.726562 -46.191406 19.09375 -44.296875 C 18.46875 -42.398438 17.851562 -40.578125 17.25 -38.828125 C 16.644531 -37.078125 16.222656 -35.90625 15.984375 -35.3125 C 15.617188 -34.34375 15.0625 -33.03125 14.3125 -31.375 C 13.5625 -29.71875 12.765625 -27.878906 11.921875 -25.859375 C 11.078125 -23.847656 10.203125 -21.742188 9.296875 -19.546875 C 8.398438 -17.347656 7.585938 -15.222656 6.859375 -13.171875 C 6.140625 -11.128906 5.535156 -9.265625 5.046875 -7.578125 C 4.566406 -5.898438 4.328125 -4.546875 4.328125 -3.515625 L 4.421875 -2.796875 C 5.148438 -3.222656 6.128906 -3.976562 7.359375 -5.0625 C 8.585938 -6.144531 9.96875 -7.363281 11.5 -8.71875 C 13.039062 -10.070312 14.625 -11.484375 16.25 -12.953125 C 17.875 -14.429688 19.410156 -15.785156 20.859375 -17.015625 C 22.304688 -18.253906 23.597656 -19.296875 24.734375 -20.140625 C 25.878906 -20.984375 26.722656 -21.429688 27.265625 -21.484375 L 27.984375 -20.859375 C 27.929688 -20.492188 27.316406 -19.722656 26.140625 -18.546875 C 24.960938 -17.378906 23.5 -15.984375 21.75 -14.359375 C 20.007812 -12.734375 18.128906 -11.03125 16.109375 -9.25 C 14.097656 -7.476562 12.1875 -5.835938 10.375 -4.328125 C 8.570312 -2.828125 7.023438 -1.59375 5.734375 -0.625 C 4.441406 0.332031 3.675781 0.8125 3.4375 0.8125 C 2.707031 0.8125 2.160156 0.71875 1.796875 0.53125 C 1.441406 0.351562 1.171875 0.117188 0.984375 -0.171875 C 0.804688 -0.472656 0.6875 -0.847656 0.625 -1.296875 C 0.570312 -1.753906 0.453125 -2.222656 0.265625 -2.703125 Z M 0.265625 -2.703125 "/></g></g></g><g fill="#ff66c4" fill-opacity="1"><g transform="translate(336.54479, 98.025168)"><g><path d="M 6.046875 0.8125 C 4.785156 0.75 3.734375 0.429688 2.890625 -0.140625 C 2.046875 -0.710938 1.394531 -1.429688 0.9375 -2.296875 C 0.488281 -3.171875 0.1875 -4.117188 0.03125 -5.140625 C -0.113281 -6.171875 -0.125 -7.195312 0 -8.21875 C 0.175781 -9.957031 0.726562 -11.925781 1.65625 -14.125 C 2.59375 -16.320312 3.738281 -18.382812 5.09375 -20.3125 C 6.457031 -22.238281 7.953125 -23.863281 9.578125 -25.1875 C 11.203125 -26.507812 12.828125 -27.171875 14.453125 -27.171875 C 15.953125 -27.171875 17.210938 -26.539062 18.234375 -25.28125 C 19.265625 -24.019531 19.78125 -22.664062 19.78125 -21.21875 C 19.78125 -19.957031 19.28125 -18.539062 18.28125 -16.96875 C 17.289062 -15.40625 16.117188 -13.960938 14.765625 -12.640625 C 13.410156 -11.316406 12.007812 -10.203125 10.5625 -9.296875 C 9.113281 -8.398438 7.941406 -7.953125 7.046875 -7.953125 C 6.742188 -7.953125 6.457031 -8.023438 6.1875 -8.171875 C 5.914062 -8.316406 5.660156 -8.453125 5.421875 -8.578125 C 5.054688 -8.273438 4.8125 -7.835938 4.6875 -7.265625 C 4.570312 -6.691406 4.554688 -6.117188 4.640625 -5.546875 C 4.734375 -4.984375 4.929688 -4.488281 5.234375 -4.0625 C 5.535156 -3.644531 5.988281 -3.4375 6.59375 -3.4375 C 7.675781 -3.4375 8.984375 -3.75 10.515625 -4.375 C 12.054688 -5.007812 13.726562 -5.835938 15.53125 -6.859375 C 17.332031 -7.878906 19.195312 -9.019531 21.125 -10.28125 C 23.050781 -11.550781 24.882812 -12.816406 26.625 -14.078125 C 28.375 -15.347656 29.988281 -16.550781 31.46875 -17.6875 C 32.945312 -18.832031 34.132812 -19.800781 35.03125 -20.59375 L 35.84375 -20.765625 L 35.84375 -20.671875 L 36.125 -20.21875 L 36.125 -20.140625 C 35.09375 -19.054688 33.820312 -17.789062 32.3125 -16.34375 C 30.8125 -14.894531 29.1875 -13.390625 27.4375 -11.828125 C 25.695312 -10.265625 23.878906 -8.710938 21.984375 -7.171875 C 20.085938 -5.640625 18.207031 -4.269531 16.34375 -3.0625 C 14.476562 -1.863281 12.65625 -0.898438 10.875 -0.171875 C 9.101562 0.546875 7.492188 0.875 6.046875 0.8125 Z M 9.125 -14.8125 C 10.320312 -15.46875 11.414062 -16.25 12.40625 -17.15625 C 13.40625 -18.0625 14.238281 -19.144531 14.90625 -20.40625 L 14.90625 -20.859375 C 14.414062 -20.617188 13.882812 -20.253906 13.3125 -19.765625 C 12.75 -19.285156 12.164062 -18.742188 11.5625 -18.140625 C 10.957031 -17.546875 10.410156 -16.945312 9.921875 -16.34375 C 9.441406 -15.738281 9.082031 -15.226562 8.84375 -14.8125 Z M 9.125 -14.8125 "/></g></g></g></g></g></svg>